<svg viewBox="0 0 399 263" fill="#555" version="1.1" xmlns="http://www.w3.org/2000/svg" xmlns:xlink="http://www.w3.org/1999/xlink" xml:space="preserve" xmlns:serif="http://www.serif.com/" style="fill-rule:evenodd;clip-rule:evenodd;stroke-linejoin:round;stroke-miterlimit:2;"><path d="M170.325,101.914C150.034,177.326 80.788,231.748 0,231.748L0,262.838C87.769,262.838 163.362,207.855 193.449,130.507L170.325,101.914ZM136.262,59.796C124.163,86.102 117.44,115.355 117.44,146.078L148.53,146.078C148.53,125.448 152.052,105.674 158.514,87.31L136.262,59.796ZM176.305,42.004L183.12,77.761L195.486,84.384C192.59,88.06 189.569,91.591 186.4,94.967L193.32,131.281C211.826,115.341 227.739,95.797 239.935,73.025L209.617,56.786C261.274,25.471 327.406,21.557 383.589,51.649L398.268,24.243C325.2,-14.894 238.719,-4.983 176.305,42.004ZM144.056,46.866L125.85,40.685L136.257,29.292L144.056,46.866ZM159.793,40.223L152.178,14.226L170.54,15.356L159.793,40.223Z"/></svg>